# xmcd
#
# Track frame offsets: 
#        150
#        28863
#        46630
#        72481
#        94608
#        120762
#        134520
#        152529
#        177487
#        207405
#        228765
#        253509
#
# Disc length: 3718 seconds
#
# Revision: 0
# Processed by: cddbd v1.5.2PL0 Copyright (c) Steve Scherf et al.
# Submitted via: ExactAudioCopy v0.99pb4
#
DISCID=980e840c
DTITLE=Riki Gal - Middle blues
DYEAR=2004
DGENRE=Blues
TTITLE0=Ne Me Quitte Pas
TTITLE1=My Man
TTITLE2=God Bless This Child
TTITLE3=Forbidden Child, Allowed Child
TTITLE4=Mother (If I Could)
TTITLE5=Come On-A My House
TTITLE6=The Look of Love
TTITLE7=How Intensive
TTITLE8=Middle Blues
TTITLE9=Be Quiet
TTITLE10=Send in the Clowns
TTITLE11=Say Goodbye
EXTD=
EXTT0=
EXTT1=
EXTT2=
EXTT3=
EXTT4=
EXTT5=
EXTT6=
EXTT7=
EXTT8=
EXTT9=
EXTT10=
EXTT11=
PLAYORDER=
